{
  "accessors": [
    {
      "bufferView": 2,
      "componentType": 5126,
      "count": 10662,
      "max": [
        26.696910858154297,
        53.696929931640625,
        75.66426086425781
      ],
      "min": [
        -26.69692039489746,
        -53.69689178466797,
        -0.019200000911951065
      ],
      "type": "VEC3"
    },
    {
      "bufferView": 2,
      "byteOffset": 127944,
      "componentType": 5126,
      "count": 10662,
      "max": [
        1.0,
        1.0,
        1.0
      ],
      "min": [
        -1.0,
        -1.0,
        -1.0
      ],
      "type": "VEC3"
    },
    {
      "bufferView": 3,
      "componentType": 5126,
      "count": 10662,
      "max": [
        1.0,
        1.0,
        1.0,
        1.0
      ],
      "min": [
        -1.0,
        -1.0,
        -1.0,
        -1.0
      ],
      "type": "VEC4"
    },
    {
      "bufferView": 1,
      "componentType": 5126,
      "count": 10662,
      "max": [
        0.9977499842643738,
        0.9968699812889099
      ],
      "min": [
        0.005350000225007534,
        0.005419999826699495
      ],
      "type": "VEC2"
    },
    {
      "bufferView": 0,
      "componentType": 5125,
      "count": 31068,
      "type": "SCALAR"
    },
    {
      "bufferView": 2,
      "byteOffset": 255888,
      "componentType": 5126,
      "count": 5618,
      "max": [
        12.69690990447998,
        26.696910858154297,
        24.664230346679688
      ],
      "min": [
        -12.69690990447998,
        -26.696910858154297,
        -0.019200000911951065
      ],
      "type": "VEC3"
    },
    {
      "bufferView": 2,
      "byteOffset": 323304,
      "componentType": 5126,
      "count": 5618,
      "max": [
        1.0,
        1.0,
        1.0
      ],
      "min": [
        -1.0,
        -1.0,
        -1.0
      ],
      "type": "VEC3"
    },
    {
      "bufferView": 3,
      "byteOffset": 170592,
      "componentType": 5126,
      "count": 5618,
      "max": [
        1.0,
        1.0,
        1.0,
        1.0
      ],
      "min": [
        -1.0,
        -1.0,
        -1.0,
        -1.0
      ],
      "type": "VEC4"
    },
    {
      "bufferView": 1,
      "byteOffset": 85296,
      "componentType": 5126,
      "count": 5618,
      "max": [
        0.9977499842643738,
        0.9968699812889099
      ],
      "min": [
        0.005350000225007534,
        0.005419999826699495
      ],
      "type": "VEC2"
    },
    {
      "bufferView": 0,
      "byteOffset": 124272,
      "componentType": 5125,
      "count": 17616,
      "type": "SCALAR"
    },
    {
      "bufferView": 2,
      "byteOffset": 390720,
      "componentType": 5126,
      "count": 6433,
      "max": [
        20.696910858154297,
        44.6969108581543,
        32.66423034667969
      ],
      "min": [
        -20.696910858154297,
        -44.6969108581543,
        -0.019200000911951065
      ],
      "type": "VEC3"
    },
    {
      "bufferView": 2,
      "byteOffset": 467916,
      "componentType": 5126,
      "count": 6433,
      "max": [
        1.0,
        1.0,
        1.0
      ],
      "min": [
        -1.0,
        -1.0,
        -1.0
      ],
      "type": "VEC3"
    },
    {
      "bufferView": 3,
      "byteOffset": 260480,
      "componentType": 5126,
      "count": 6433,
      "max": [
        1.0,
        1.0,
        1.0,
        1.0
      ],
      "min": [
        -1.0,
        -1.0,
        -1.0,
        -1.0
      ],
      "type": "VEC4"
    },
    {
      "bufferView": 1,
      "byteOffset": 130240,
      "componentType": 5126,
      "count": 6433,
      "max": [
        0.9977499842643738,
        0.9968699812889099
      ],
      "min": [
        0.005350000225007534,
        0.005419999826699495
      ],
      "type": "VEC2"
    },
    {
      "bufferView": 0,
      "byteOffset": 194736,
      "componentType": 5125,
      "count": 19776,
      "type": "SCALAR"
    },
    {
      "bufferView": 2,
      "byteOffset": 545112,
      "componentType": 5126,
      "count": 5893,
      "max": [
        24.696910858154297,
        17.696910858154297,
        36.66423034667969
      ],
      "min": [
        -24.696910858154297,
        -17.696910858154297,
        -0.019200000911951065
      ],
      "type": "VEC3"
    },
    {
      "bufferView": 2,
      "byteOffset": 615828,
      "componentType": 5126,
      "count": 5893,
      "max": [
        1.0,
        1.0,
        1.0
      ],
      "min": [
        -1.0,
        -1.0,
        -1.0
      ],
      "type": "VEC3"
    },
    {
      "bufferView": 3,
      "byteOffset": 363408,
      "componentType": 5126,
      "count": 5893,
      "max": [
        1.0,
        1.0,
        1.0,
        1.0
      ],
      "min": [
        -1.0,
        -1.0,
        -1.0,
        -1.0
      ],
      "type": "VEC4"
    },
    {
      "bufferView": 1,
      "byteOffset": 181704,
      "componentType": 5126,
      "count": 5893,
      "max": [
        0.9977499842643738,
        0.9968699812889099
      ],
      "min": [
        0.005350000225007534,
        0.005419999826699495
      ],
      "type": "VEC2"
    },
    {
      "bufferView": 0,
      "byteOffset": 273840,
      "componentType": 5125,
      "count": 18672,
      "type": "SCALAR"
    }
  ],
  "asset": {
    "extras": {
      "author": "maxdragonn (https://sketchfab.com/maxdragon)",
      "license": "SKETCHFAB Standard (https://sketchfab.com/licenses)",
      "source": "https://sketchfab.com/3d-models/instrument-flight-cases-bbc516ae9a764ae5ad4674a2014f9491",
      "title": "Instrument Flight Cases"
    },
    "generator": "Sketchfab-12.67.0",
    "version": "2.0"
  },
  "bufferViews": [
    {
      "buffer": 0,
      "byteLength": 348528,
      "name": "floatBufferViews",
      "target": 34963
    },
    {
      "buffer": 0,
      "byteLength": 228848,
      "byteOffset": 348528,
      "byteStride": 8,
      "name": "floatBufferViews",
      "target": 34962
    },
    {
      "buffer": 0,
      "byteLength": 686544,
      "byteOffset": 577376,
      "byteStride": 12,
      "name": "floatBufferViews",
      "target": 34962
    },
    {
      "buffer": 0,
      "byteLength": 457696,
      "byteOffset": 1263920,
      "byteStride": 16,
      "name": "floatBufferViews",
      "target": 34962
    }
  ],
  "buffers": [
    {
      "byteLength": 1721616,
      "uri": "scene.bin"
    }
  ],
  "images": [
    {
      "uri": "textures/bandcase_baseColor.png"
    },
    {
      "uri": "textures/bandcase_metallicRoughness.png"
    },
    {
      "uri": "textures/bandcase_normal.png"
    }
  ],
  "materials": [
    {
      "doubleSided": true,
      "name": "bandcase",
      "normalTexture": {
        "index": 2
      },
      "pbrMetallicRoughness": {
        "baseColorTexture": {
          "index": 0
        },
        "metallicRoughnessTexture": {
          "index": 1
        },
        "roughnessFactor": 0.22002778639135645
      }
    }
  ],
  "meshes": [
    {
      "name": "bandcase_d_0",
      "primitives": [
        {
          "attributes": {
            "NORMAL": 1,
            "POSITION": 0,
            "TANGENT": 2,
            "TEXCOORD_0": 3
          },
          "indices": 4,
          "material": 0,
          "mode": 4
        }
      ]
    },
    {
      "name": "bandcase_c_0",
      "primitives": [
        {
          "attributes": {
            "NORMAL": 6,
            "POSITION": 5,
            "TANGENT": 7,
            "TEXCOORD_0": 8
          },
          "indices": 9,
          "material": 0,
          "mode": 4
        }
      ]
    },
    {
      "name": "bandcase_b_0",
      "primitives": [
        {
          "attributes": {
            "NORMAL": 11,
            "POSITION": 10,
            "TANGENT": 12,
            "TEXCOORD_0": 13
          },
          "indices": 14,
          "material": 0,
          "mode": 4
        }
      ]
    },
    {
      "name": "bandcase_a_0",
      "primitives": [
        {
          "attributes": {
            "NORMAL": 16,
            "POSITION": 15,
            "TANGENT": 17,
            "TEXCOORD_0": 18
          },
          "indices": 19,
          "material": 0,
          "mode": 4
        }
      ]
    }
  ],
  "nodes": [
    {
      "children": [
        1
      ],
      "matrix": [
        1.0,
        0.0,
        0.0,
        0.0,
        0.0,
        2.220446049250313e-16,
        -1.0,
        0.0,
        0.0,
        1.0,
        2.220446049250313e-16,
        0.0,
        0.0,
        0.0,
        0.0,
        1.0
      ],
      "name": "Sketchfab_model"
    },
    {
      "children": [
        2,
        4,
        6,
        8,
        10
      ],
      "name": "Root"
    },
    {
      "children": [
        3
      ],
      "matrix": [
        0.9396900000000001,
        -0.3420200000000001,
        0.0,
        0.0,
        0.3420200000000001,
        0.9396900000000001,
        0.0,
        0.0,
        0.0,
        0.0,
        1.0,
        0.0,
        -30.0,
        40.0,
        0.0,
        1.0
      ],
      "name": "bandcase_d"
    },
    {
      "mesh": 0,
      "name": "bandcase_d_0"
    },
    {
      "children": [
        5
      ],
      "matrix": [
        0.99619,
        0.08716000000000003,
        0.0,
        0.0,
        -0.08716000000000003,
        0.99619,
        0.0,
        0.0,
        0.0,
        0.0,
        1.0,
        0.0,
        -25.0,
        -60.0,
        32.0,
        1.0
      ],
      "name": "bandcase_c"
    },
    {
      "mesh": 1,
      "name": "bandcase_c_0"
    },
    {
      "children": [
        7
      ],
      "matrix": [
        0.9659300000000001,
        0.25882000000000005,
        0.0,
        0.0,
        -0.25882000000000005,
        0.9659300000000001,
        0.0,
        0.0,
        0.0,
        0.0,
        1.0,
        0.0,
        -20.0,
        -70.0,
        0.0,
        1.0
      ],
      "name": "bandcase_b"
    },
    {
      "mesh": 2,
      "name": "bandcase_b_0"
    },
    {
      "children": [
        9
      ],
      "matrix": [
        0.0,
        -1.0,
        0.0,
        0.0,
        1.0,
        0.0,
        0.0,
        0.0,
        0.0,
        0.0,
        1.0,
        0.0,
        20.0,
        -20.0,
        0.0,
        1.0
      ],
      "name": "bandcase_a"
    },
    {
      "mesh": 3,
      "name": "bandcase_a_0"
    },
    {
      "children": [
        11
      ],
      "matrix": [
        -0.29086000000000006,
        0.9551700000000001,
        -0.05519000000000001,
        0.0,
        -0.7711,
        -0.19988000000000003,
        0.6045200000000001,
        0.0,
        0.5663900000000001,
        0.21839000000000003,
        0.7946700000000001,
        0.0,
        4.076250000000001,
        1.00545,
        5.903860000000001,
        1.0
      ],
      "name": "Lamp"
    },
    {
      "name": "Lamp"
    }
  ],
  "samplers": [
    {
      "magFilter": 9729,
      "minFilter": 9987,
      "wrapS": 10497,
      "wrapT": 10497
    }
  ],
  "scene": 0,
  "scenes": [
    {
      "name": "Sketchfab_Scene",
      "nodes": [
        0
      ]
    }
  ],
  "textures": [
    {
      "sampler": 0,
      "source": 0
    },
    {
      "sampler": 0,
      "source": 1
    },
    {
      "sampler": 0,
      "source": 2
    }
  ]
}
